<svg xmlns="http://www.w3.org/2000/svg" width="400" height="400"><defs><marker orient="auto" id="a" overflow="visible"><path d="M8.719 4.034L-2.207.016 8.719-4.002c-1.746 2.372-1.736 5.618 0 8.036z" transform="scale(-.6)" font-size="12" fill-rule="evenodd" stroke-width=".625" stroke-linejoin="round"/></marker></defs><path style="marker:none" color="#000" fill="#fff" stroke="#1bad1b" overflow="visible" d="M28.896 19.337h120.208v172.736H28.896z"/><text style="line-height:125%" x="42.028" y="711.095" font-size="32" font-weight="400" letter-spacing="0" word-spacing="0" fill="#00e900" font-family="Sans" transform="translate(0 -652.362)"><tspan x="42.028" y="711.095">HTML</tspan></text><text style="text-align:center;line-height:125%" x="87.254" y="762.613" font-size="18" font-weight="400" letter-spacing="0" word-spacing="0" text-anchor="middle" fill="#7ab27e" font-family="Sans" transform="translate(0 -652.362)"><tspan x="87.254" y="762.613">Content</tspan></text><path style="marker:none" color="#000" fill="#fff" stroke="#ae1b1b" overflow="visible" d="M250.896 20.927h120.208v172.736H250.896z"/><text style="line-height:125%" x="273.028" y="712.685" font-size="32" font-weight="400" letter-spacing="0" word-spacing="0" fill="#e80000" font-family="Sans" transform="translate(0 -652.362)"><tspan x="273.028" y="712.685">LESS</tspan></text><text style="text-align:center;line-height:125%" x="309.254" y="764.203" font-size="18" font-weight="400" letter-spacing="0" word-spacing="0" text-anchor="middle" fill="#ab4b7e" font-family="Sans" transform="translate(0 -652.362)"><tspan x="309.254" y="764.203">Style</tspan></text><path d="M91 845.657l44 58" fill="none" stroke="#000" stroke-width="3" marker-end="url(#a)" transform="translate(0 -652.362)"/><path style="marker:none" color="#000" fill="#fff" stroke="#1c1bd6" overflow="visible" d="M136.896 211.927h120.208v172.736H136.896z"/><path d="M303.924 845.657l-44 58" fill="none" stroke="#000" stroke-width="3" marker-end="url(#a)" transform="translate(0 -652.362)"/><text style="text-align:center;line-height:125%" x="195.258" y="904.657" font-size="32" font-weight="400" letter-spacing="0" word-spacing="0" text-anchor="middle" fill="#4700b2" font-family="Sans" transform="translate(0 -652.362)"><tspan x="195.258" y="904.657">LESS</tspan></text><text style="text-align:center;line-height:125%" x="198" y="954.657" font-size="18" font-weight="400" letter-spacing="0" word-spacing="0" text-anchor="middle" fill="#2b00e0" font-family="Sans" transform="translate(0 -652.362)"><tspan x="198" y="954.657">Tie</tspan><tspan x="200.865" y="977.157">structure </tspan><tspan x="198" y="999.657">to style</tspan></text><text style="text-align:center;line-height:125%" x="312" y="734.362" font-size="18" font-weight="400" letter-spacing="0" word-spacing="0" text-anchor="middle" fill="#d40000" font-family="Sans" transform="translate(0 -652.362)"><tspan x="312" y="734.362">(mixins)</tspan></text><text style="text-align:center;line-height:125%" x="194" y="922.362" font-size="18" font-weight="400" letter-spacing="0" word-spacing="0" text-anchor="middle" fill="#4d00cc" font-family="Sans" transform="translate(0 -652.362)"><tspan x="194" y="922.362">(rules)</tspan></text></svg>
